# xmcd CD database file
#
# Track frame offsets:
#	150
#	24097
#	52239
#	74739
#	90155
#	118450
#	139215
#	159565
#	185795
#	205311
#	239925
#	265415
#
# Disc length: 3824 seconds
#
# Revision: 0
# Processed by: cddbd v1.5.2PL0 Copyright (c) Steve Scherf et al.
# Submitted via: CDex 1.51
#
DISCID=c00eee0c
DTITLE=British Blues All Stars - At Notodden Blues Festival
DYEAR=2007
DGENRE=Blues
TTITLE0=When It Rains
TTITLE1=Mississippi Steamboat
TTITLE2=Standing By My Window
TTITLE3=Black Magic Woman
TTITLE4=Pine Top`s Boogie Woogie
TTITLE5=Midnight In New Orleans
TTITLE6=Shake That Thing
TTITLE7=Beehive Blues
TTITLE8=I Got My Eye On You
TTITLE9=Where Has Your Heart Gone
TTITLE10=Every Day I Have The Blues
TTITLE11=Baldry`s Out
EXTD=YEAR: 2007
EXTT0=
EXTT1=
EXTT2=
EXTT3=
EXTT4=
EXTT5=
EXTT6=
EXTT7=
EXTT8=
EXTT9=
EXTT10=
EXTT11=
PLAYORDER=
